<?xml version="1.0" standalone="no"?>
<!DOCTYPE svg PUBLIC "-//W3C//DTD SVG 20010904//EN"
 "http://www.w3.org/TR/2001/REC-SVG-20010904/DTD/svg10.dtd">
<svg version="1.0" xmlns="http://www.w3.org/2000/svg"
 width="173.000000pt" height="178.000000pt" viewBox="0 0 173.000000 178.000000"
 preserveAspectRatio="xMidYMid meet">

<g transform="translate(0.000000,178.000000) scale(0.100000,-0.100000)"
fill="#000000" stroke="none">
<path d="M715 1759 c-16 -10 -36 -18 -42 -18 -7 -1 -35 -17 -62 -36 -26 -19
-52 -35 -57 -35 -22 -1 -114 -100 -139 -150 -15 -30 -36 -67 -46 -82 -11 -14
-19 -33 -19 -42 0 -9 -18 -54 -40 -100 -33 -69 -40 -94 -40 -145 0 -34 -5 -70
-12 -80 -9 -15 -8 -24 6 -46 11 -17 15 -36 12 -51 -7 -28 2 -74 15 -74 5 0 9
7 9 15 0 9 7 18 15 21 16 7 49 -21 41 -35 -3 -4 5 -30 18 -56 17 -36 24 -44
29 -32 4 10 12 17 18 17 8 0 8 -4 1 -12 -5 -7 -13 -29 -16 -48 l-7 -35 21 24
c15 18 20 37 20 85 0 83 15 110 63 114 48 4 48 20 0 24 -37 3 -38 4 -37 43 1
22 2 54 4 70 2 29 -2 53 -16 98 -9 28 -6 83 7 123 10 31 14 34 89 47 9 2 33
20 54 41 29 28 41 34 47 24 7 -10 9 -10 9 0 0 6 11 12 24 12 13 0 26 6 29 13
3 8 19 11 43 9 62 -5 80 -3 117 13 10 4 37 4 60 1 108 -18 140 -19 132 -6 -5
9 -4 11 4 6 6 -4 45 0 87 9 41 10 78 14 81 11 4 -3 1 -6 -5 -6 -7 0 -12 -4
-12 -10 0 -5 6 -10 13 -10 43 0 118 -180 116 -280 -3 -152 -4 -160 -18 -155
-11 4 -11 3 -1 -9 6 -9 15 -15 18 -14 4 0 17 0 30 -1 24 -1 31 -21 8 -21 -19
0 -28 -31 -20 -67 13 -57 2 -322 -13 -332 -6 -3 -7 -15 -3 -26 5 -14 1 -25
-13 -38 -11 -9 -17 -20 -14 -24 4 -3 -1 -12 -11 -19 -21 -16 -32 -17 -32 -4 0
6 6 10 13 10 8 0 14 14 15 35 3 43 -14 46 -23 5 -4 -16 -10 -32 -13 -34 -11
-7 -8 108 3 116 6 5 3 8 -7 8 -11 0 -15 5 -12 14 3 8 -3 19 -15 26 -12 6 -21
20 -21 30 0 11 -6 20 -12 20 -7 0 2 9 20 20 36 22 34 45 -3 36 -32 -8 -76 2
-105 24 -20 15 -22 20 -11 34 16 19 7 50 -11 40 -7 -4 -9 -3 -5 1 4 5 28 8 52
6 29 -2 50 3 60 12 13 13 10 16 -20 21 -51 10 -43 22 11 17 39 -3 45 -1 42 14
-3 20 -19 30 -63 41 -28 7 -26 8 20 14 l50 5 -48 19 c-53 20 -54 24 -5 37 25
7 20 7 -22 3 -30 -3 -59 -9 -65 -13 -5 -5 -27 -14 -48 -21 -26 -8 -37 -17 -33
-26 3 -8 2 -14 -3 -14 -14 0 -3 -77 16 -112 10 -18 31 -52 47 -75 30 -46 50
-113 36 -127 -4 -4 -7 0 -7 10 2 14 -7 18 -37 20 -25 2 -43 -2 -50 -11 -11
-15 -37 -18 -126 -15 -37 1 -49 -3 -67 -25 -24 -27 -28 -51 -15 -72 9 -15 89
-10 105 6 17 17 31 13 17 -4 -10 -12 -10 -15 4 -15 15 0 20 -9 14 -27 -2 -5
-7 -7 -11 -5 -4 1 -16 -2 -26 -7 -12 -7 -22 -6 -29 1 -9 9 -16 7 -27 -8 -10
-13 -14 -15 -15 -5 0 8 -3 11 -7 8 -9 -10 -34 14 -26 26 3 6 1 7 -5 3 -7 -4
-20 -2 -29 3 -16 9 -16 10 5 11 l22 0 -22 35 c-20 30 -27 34 -53 30 -28 -5
-28 -4 -7 7 12 6 22 16 22 22 0 6 25 37 55 69 30 32 55 60 55 62 0 3 -16 -4
-35 -15 -21 -12 -56 -20 -83 -21 -46 -1 -46 -1 -14 -10 17 -5 32 -15 32 -21 0
-6 -16 -28 -36 -50 -23 -26 -34 -47 -31 -59 3 -13 -2 -23 -15 -30 -18 -9 -20
-18 -15 -62 5 -49 3 -54 -26 -79 -20 -18 -34 -23 -38 -16 -4 6 -12 7 -18 4 -6
-4 -8 -12 -5 -18 8 -12 0 -10 -48 14 -15 7 -27 18 -27 23 2 20 -14 55 -22 49
-5 -3 -9 -1 -9 5 0 5 4 12 10 16 10 6 2 36 -14 47 -7 6 -6 11 4 18 10 7 12 12
4 18 -6 4 -13 12 -15 19 -7 23 -32 -4 -31 -33 2 -68 6 -94 14 -94 5 0 8 -8 7
-17 -3 -22 15 -67 41 -103 11 -15 16 -30 13 -34 -4 -4 -1 -5 7 -2 10 4 23 -6
36 -27 35 -53 154 -188 172 -194 10 -4 20 -11 24 -17 5 -7 8 -7 8 2 0 6 6 12
14 12 9 0 13 -8 9 -22 -3 -19 -2 -20 6 -7 8 13 20 14 73 7 35 -5 68 -9 75 -10
7 -1 14 -6 17 -13 2 -7 -6 -10 -25 -7 -17 3 -29 0 -29 -7 0 -6 9 -11 20 -11
11 0 25 -9 32 -20 12 -18 24 -20 136 -20 l123 0 33 34 c19 18 46 52 61 74 24
36 26 47 20 89 -4 26 -13 60 -21 76 -13 25 -13 31 3 60 10 18 22 35 26 38 4 3
5 13 1 22 -4 11 -1 17 9 17 9 0 19 5 23 12 4 7 3 8 -4 4 -7 -4 -12 -3 -12 1 0
14 42 137 50 148 7 9 18 75 26 150 2 17 10 64 19 105 8 41 17 89 20 106 3 17
12 44 20 60 16 31 19 66 8 78 -5 4 -8 29 -9 54 -1 26 -6 66 -12 89 -7 23 -14
79 -16 125 -3 46 -12 101 -20 123 -8 22 -15 36 -15 32 -1 -12 -61 49 -61 62 0
6 -7 11 -15 11 -8 0 -15 5 -15 10 0 22 30 8 60 -27 17 -21 29 -30 26 -20 -3
10 -6 25 -6 33 0 8 -6 14 -14 14 -8 0 -16 6 -19 13 -2 7 -25 23 -50 36 -35 18
-55 22 -85 17 -36 -5 -42 -3 -73 32 -19 20 -62 52 -97 70 -63 33 -64 33 -190
31 -101 -2 -133 -6 -157 -20z m425 -733 c0 -2 -7 -7 -16 -10 -8 -3 -12 -2 -9
4 6 10 25 14 25 6z m-94 -93 c-11 -11 -17 4 -9 23 7 18 8 18 11 1 2 -10 1 -21
-2 -24z m54 -93 c0 7 3 11 6 7 3 -3 3 -11 -1 -17 -8 -13 -35 5 -35 24 0 6 7 2
15 -8 10 -13 15 -15 15 -6z m-20 -210 c6 9 10 10 10 3 0 -11 -26 -43 -35 -43
-2 0 -7 5 -11 12 -5 7 -3 8 6 3 9 -6 10 -1 5 16 -5 19 -4 21 4 9 10 -13 12
-13 21 0z m60 -5 c7 -9 11 -17 8 -20 -2 -2 -12 4 -21 15 -9 11 -13 20 -8 20 5
0 14 -7 21 -15z m-107 -35 c3 -14 1 -20 -6 -17 -7 2 -14 14 -15 26 -4 28 13
20 21 -9z m64 5 c0 -8 -7 -15 -15 -15 -12 0 -12 3 -2 15 7 8 13 15 15 15 1 0
2 -7 2 -15z m-82 -75 c3 -5 -3 -10 -14 -10 -12 0 -21 5 -21 10 0 6 6 10 14 10
8 0 18 -4 21 -10z m-57 -33 c34 0 62 -4 62 -9 0 -4 -8 -8 -17 -8 -13 0 -11 -4
7 -13 18 -9 33 -10 52 -3 31 11 58 -5 53 -32 -2 -9 -4 -21 -4 -25 -1 -5 -10
-5 -21 -2 -11 4 -20 2 -20 -4 0 -6 -7 -11 -16 -11 -11 0 -14 -5 -9 -17 8 -22
8 -20 6 -62 -1 -46 -13 -32 -17 21 -2 24 -8 44 -14 46 -6 2 -8 8 -4 13 3 5 0
9 -5 9 -6 0 -11 -5 -11 -12 0 -6 -3 -8 -7 -4 -4 4 -8 15 -8 23 0 9 -5 18 -11
20 -13 4 -7 -44 7 -53 5 -3 9 -15 9 -27 -1 -21 -1 -21 -14 3 l-14 25 -9 -33
c-9 -36 -29 -40 -25 -4 5 36 -16 25 -27 -15 -6 -20 -8 -39 -6 -42 3 -2 5 2 5
9 0 9 5 7 15 -6 8 -10 15 -14 15 -8 0 6 7 11 16 11 10 0 14 -7 11 -19 -3 -10
-1 -16 3 -13 14 9 7 -30 -7 -44 -7 -6 -13 -9 -13 -6 0 3 -9 -4 -20 -15 -24
-24 -76 -26 -127 -5 -19 8 -43 15 -53 15 -10 0 -23 13 -30 30 -7 16 -17 27
-23 23 -5 -3 -7 -1 -4 5 4 5 18 9 32 7 16 -1 25 3 25 11 0 8 7 14 15 14 8 0
15 -4 15 -10 0 -5 7 -7 15 -4 8 4 15 11 15 16 0 6 -7 8 -15 4 -8 -3 -15 -1
-15 4 0 6 7 10 16 10 27 0 9 79 -23 108 -14 12 -21 22 -15 22 7 0 12 7 12 15
0 8 9 24 21 36 18 18 27 20 67 13 26 -4 75 -8 110 -7z m161 -207 c4 0 8 -13 8
-30 0 -39 -13 -39 -21 1 -7 37 -7 75 1 47 2 -10 8 -18 12 -18z m-108 -58 c17
-39 17 -42 1 -33 -13 7 -23 4 -39 -11 -29 -27 -30 -19 -2 13 16 19 20 33 15
64 -3 22 -2 33 1 25 3 -8 14 -34 24 -58z m149 48 c0 -5 -4 -10 -10 -10 -5 0
-10 5 -10 10 0 6 5 10 10 10 6 0 10 -4 10 -10z m-73 -39 c9 9 11 7 6 -10 -3
-11 -7 -21 -8 -21 -11 0 -35 34 -35 48 1 13 4 12 13 -6 10 -17 16 -19 24 -11z
m182 2 c0 -16 -4 -46 -8 -68 -6 -30 -10 -36 -16 -22 -4 9 -13 17 -20 17 -8 0
-10 9 -7 25 2 14 8 25 12 25 4 0 11 11 14 25 9 34 26 32 25 -2z m-225 -19 c10
-25 -1 -29 -14 -5 -6 12 -7 21 -1 21 5 0 12 -7 15 -16z"/>
<path d="M1050 425 c0 -8 4 -15 10 -15 5 0 7 7 4 15 -4 8 -8 15 -10 15 -2 0
-4 -7 -4 -15z"/>
<path d="M932 387 c-9 -11 -10 -17 -2 -22 15 -9 23 -1 18 21 -3 15 -4 16 -16
1z"/>
<path d="M833 344 c-7 -7 -13 -28 -12 -46 l1 -33 11 28 c6 15 14 27 19 27 10
0 11 27 1 33 -5 3 -14 -1 -20 -9z"/>
<path d="M860 296 c0 -8 -6 -17 -12 -19 -7 -3 -3 -6 9 -6 16 -1 20 3 16 19 -6
23 -13 26 -13 6z"/>
<path d="M870 203 c0 -15 18 -35 23 -27 3 5 -1 15 -9 22 -8 7 -14 9 -14 5z"/>
<path d="M1600 1319 c0 -5 5 -7 10 -4 6 3 10 8 10 11 0 2 -4 4 -10 4 -5 0 -10
-5 -10 -11z"/>
<path d="M700 1040 c-18 -6 -4 -8 49 -9 41 -1 72 2 69 5 -10 9 -92 13 -118 4z"/>
<path d="M1296 1018 c1 -13 5 -40 9 -62 l8 -39 13 39 c13 36 12 41 -9 62 l-23
22 2 -22z"/>
<path d="M635 1020 c-3 -6 1 -7 9 -4 18 7 21 14 7 14 -6 0 -13 -4 -16 -10z"/>
<path d="M748 1012 c-38 -4 -36 -22 2 -22 34 0 41 -15 9 -17 -25 -2 -25 -2
-34 -32 -6 -20 -4 -23 9 -18 9 4 16 1 16 -5 0 -7 4 -7 14 1 11 9 15 8 20 -4 3
-9 2 -14 -2 -11 -4 2 -18 -1 -31 -8 -32 -18 -15 -25 34 -14 34 7 43 14 58 48
9 22 21 40 27 40 5 0 10 4 10 10 0 5 -7 6 -17 3 -11 -4 -14 -3 -9 5 4 7 4 12
-1 12 -4 0 -24 4 -43 8 -19 4 -47 6 -62 4z m56 -88 c3 -8 2 -12 -4 -9 -6 3
-10 10 -10 16 0 14 7 11 14 -7z"/>
<path d="M859 1007 c46 -27 65 -99 40 -150 -10 -21 -10 -21 5 -3 9 11 17 31
18 45 2 47 3 50 16 63 15 15 16 28 2 28 -5 0 -10 -8 -10 -17 -1 -17 -2 -16
-15 1 -8 10 -16 22 -17 27 -2 4 -16 10 -33 14 -30 6 -30 6 -6 -8z"/>
<path d="M120 994 c0 -8 5 -12 10 -9 6 4 8 11 5 16 -9 14 -15 11 -15 -7z"/>
<path d="M910 1000 c0 -5 4 -10 9 -10 6 0 13 5 16 10 3 6 -1 10 -9 10 -9 0
-16 -4 -16 -10z"/>
<path d="M670 930 c-19 -16 -30 -29 -24 -30 5 0 20 9 32 20 12 11 26 20 32 20
5 0 10 5 10 10 0 17 -14 11 -50 -20z"/>
<path d="M1253 915 c-9 -24 10 -37 30 -23 16 12 16 14 -3 26 -17 10 -21 10
-27 -3z"/>
<path d="M317 913 c-4 -3 -7 -15 -7 -25 0 -17 1 -17 19 -1 11 9 18 20 15 25
-6 10 -18 10 -27 1z"/>
<path d="M571 905 c-1 -26 33 -100 50 -111 8 -5 6 4 -5 21 -11 16 -25 48 -32
70 -7 22 -13 31 -13 20z"/>
<path d="M887 914 c-4 -4 -7 -14 -7 -23 0 -11 3 -12 11 -4 6 6 10 16 7 23 -2
6 -7 8 -11 4z"/>
<path d="M25 880 c3 -5 8 -10 11 -10 2 0 4 5 4 10 0 6 -5 10 -11 10 -5 0 -7
-4 -4 -10z"/>
<path d="M120 849 c0 -5 5 -7 10 -4 6 3 10 8 10 11 0 2 -4 4 -10 4 -5 0 -10
-5 -10 -11z"/>
<path d="M1290 804 c-30 -31 -31 -34 -10 -24 25 11 68 61 53 59 -4 0 -24 -16
-43 -35z"/>
<path d="M162 808 c5 -15 28 -23 28 -10 0 5 -7 13 -16 16 -10 4 -14 1 -12 -6z"/>
<path d="M375 780 c-3 -5 -3 -15 1 -21 6 -11 23 6 24 24 0 10 -18 9 -25 -3z"/>
<path d="M1680 781 c0 -7 -4 -9 -10 -6 -5 3 -10 2 -10 -4 0 -5 4 -12 9 -15 10
-6 25 24 16 32 -3 3 -5 0 -5 -7z"/>
<path d="M667 759 c7 -7 15 -10 18 -7 3 3 -2 9 -12 12 -14 6 -15 5 -6 -5z"/>
<path d="M1490 749 c0 -5 5 -7 10 -4 6 3 10 8 10 11 0 2 -4 4 -10 4 -5 0 -10
-5 -10 -11z"/>
<path d="M185 740 c-3 -5 -1 -10 4 -10 6 0 11 5 11 10 0 6 -2 10 -4 10 -3 0
-8 -4 -11 -10z"/>
<path d="M430 739 c0 -5 5 -7 10 -4 6 3 10 8 10 11 0 2 -4 4 -10 4 -5 0 -10
-5 -10 -11z"/>
<path d="M381 722 c7 -11 19 -18 26 -15 15 6 18 23 4 23 -5 0 -17 3 -26 6 -15
6 -15 4 -4 -14z"/>
<path d="M1521 724 c0 -11 3 -14 6 -6 3 7 2 16 -1 19 -3 4 -6 -2 -5 -13z"/>
<path d="M1468 703 c7 -3 16 -2 19 1 4 3 -2 6 -13 5 -11 0 -14 -3 -6 -6z"/>
<path d="M420 661 c0 -17 4 -31 9 -31 10 0 36 29 30 33 -2 1 -12 9 -21 16 -16
12 -18 10 -18 -18z"/>
<path d="M220 655 c0 -8 4 -15 10 -15 5 0 7 7 4 15 -4 8 -8 15 -10 15 -2 0 -4
-7 -4 -15z"/>
<path d="M1692 653 c10 -2 15 -10 11 -19 -3 -8 1 -14 11 -14 9 0 16 8 16 20 0
15 -6 20 -27 19 -16 -1 -21 -3 -11 -6z"/>
<path d="M150 625 c-10 -12 -10 -15 4 -15 9 0 16 7 16 15 0 8 -2 15 -4 15 -2
0 -9 -7 -16 -15z"/>
<path d="M1515 630 c3 -5 8 -10 11 -10 2 0 4 5 4 10 0 6 -5 10 -11 10 -5 0 -7
-4 -4 -10z"/>
<path d="M190 614 c0 -8 5 -12 10 -9 6 4 8 11 5 16 -9 14 -15 11 -15 -7z"/>
<path d="M1660 614 c0 -8 5 -12 10 -9 6 4 8 11 5 16 -9 14 -15 11 -15 -7z"/>
<path d="M1311 613 c-1 -7 -1 -16 0 -19 0 -4 -5 -11 -13 -15 -10 -7 -10 -9 0
-9 15 0 26 24 19 42 -4 10 -6 10 -6 1z"/>
<path d="M1717 560 c-3 -11 -1 -20 4 -20 5 0 9 9 9 20 0 11 -2 20 -4 20 -2 0
-6 -9 -9 -20z"/>
<path d="M0 550 c0 -5 5 -10 11 -10 5 0 7 5 4 10 -3 6 -8 10 -11 10 -2 0 -4
-4 -4 -10z"/>
<path d="M1570 553 c0 -5 5 -15 10 -23 8 -12 10 -11 10 8 0 12 -4 22 -10 22
-5 0 -10 -3 -10 -7z"/>
<path d="M1395 540 c-3 -5 1 -10 9 -10 9 0 16 5 16 10 0 6 -4 10 -9 10 -6 0
-13 -4 -16 -10z"/>
<path d="M1522 498 c7 -15 15 -23 17 -17 2 6 -4 18 -13 27 -15 15 -15 15 -4
-10z"/>
<path d="M8 483 c7 -3 16 -2 19 1 4 3 -2 6 -13 5 -11 0 -14 -3 -6 -6z"/>
<path d="M40 470 c0 -5 5 -10 10 -10 6 0 10 5 10 10 0 6 -4 10 -10 10 -5 0
-10 -4 -10 -10z"/>
<path d="M616 461 c-4 -7 -5 -15 -2 -18 9 -9 19 4 14 18 -4 11 -6 11 -12 0z"/>
<path d="M1390 460 c0 -5 5 -10 10 -10 6 0 10 5 10 10 0 6 -4 10 -10 10 -5 0
-10 -4 -10 -10z"/>
<path d="M250 440 c0 -5 5 -10 10 -10 6 0 10 5 10 10 0 6 -4 10 -10 10 -5 0
-10 -4 -10 -10z"/>
<path d="M208 433 c6 -2 18 -2 25 0 6 3 1 5 -13 5 -14 0 -19 -2 -12 -5z"/>
<path d="M147 424 c7 -3 9 -12 6 -20 -4 -10 0 -12 11 -8 20 8 21 20 0 28 -18
7 -35 7 -17 0z"/>
<path d="M325 420 c-3 -5 1 -10 9 -10 9 0 16 5 16 10 0 6 -4 10 -9 10 -6 0
-13 -4 -16 -10z"/>
<path d="M1600 420 c0 -5 5 -10 11 -10 5 0 7 5 4 10 -3 6 -8 10 -11 10 -2 0
-4 -4 -4 -10z"/>
<path d="M1380 400 c0 -5 9 -10 20 -10 11 0 20 5 20 10 0 6 -9 10 -20 10 -11
0 -20 -4 -20 -10z"/>
<path d="M1565 400 c-3 -5 -1 -10 4 -10 6 0 11 5 11 10 0 6 -2 10 -4 10 -3 0
-8 -4 -11 -10z"/>
<path d="M105 380 c27 -12 35 -12 35 0 0 6 -12 10 -27 9 -25 0 -26 -1 -8 -9z"/>
<path d="M40 355 c0 -8 5 -15 10 -15 6 0 10 7 10 15 0 8 -4 15 -10 15 -5 0
-10 -7 -10 -15z"/>
<path d="M85 344 c-20 -15 -12 -17 19 -5 11 4 15 10 10 13 -5 4 -18 0 -29 -8z"/>
<path d="M140 345 c0 -9 6 -12 15 -9 8 4 12 10 9 15 -8 14 -24 10 -24 -6z"/>
<path d="M415 330 c-19 -8 -19 -9 3 -9 12 -1 22 4 22 9 0 6 -1 10 -2 9 -2 0
-12 -4 -23 -9z"/>
<path d="M100 316 c0 -8 -11 -17 -25 -20 -15 -4 -25 -13 -25 -24 0 -10 3 -13
8 -7 4 6 19 16 35 22 26 12 38 43 17 43 -5 0 -10 -6 -10 -14z"/>
<path d="M10 310 c0 -5 5 -10 11 -10 5 0 7 5 4 10 -3 6 -8 10 -11 10 -2 0 -4
-4 -4 -10z"/>
<path d="M150 310 c-13 -8 -12 -10 3 -10 9 0 17 5 17 10 0 12 -1 12 -20 0z"/>
<path d="M1685 310 c-3 -5 1 -10 10 -10 9 0 13 5 10 10 -3 6 -8 10 -10 10 -2
0 -7 -4 -10 -10z"/>
<path d="M471 300 c11 -7 8 -13 -11 -30 -33 -29 -32 -99 4 -172 40 -82 57 -98
108 -98 l43 0 -33 26 c-54 43 -72 90 -72 191 l0 88 -27 2 c-18 1 -22 -2 -12
-7z"/>
<path d="M1568 303 c6 -2 18 -2 25 0 6 3 1 5 -13 5 -14 0 -19 -2 -12 -5z"/>
<path d="M250 289 c0 -5 5 -7 10 -4 6 3 10 8 10 11 0 2 -4 4 -10 4 -5 0 -10
-5 -10 -11z"/>
<path d="M160 273 c0 -12 -12 -17 -36 -14 -7 1 -14 -5 -18 -14 -7 -20 -1 -19
51 6 46 22 56 39 23 36 -11 -1 -20 -7 -20 -14z"/>
<path d="M1620 280 c0 -5 9 -10 19 -10 11 0 23 5 26 10 4 6 -5 10 -19 10 -14
0 -26 -4 -26 -10z"/>
<path d="M118 273 c6 -2 18 -2 25 0 6 3 1 5 -13 5 -14 0 -19 -2 -12 -5z"/>
<path d="M210 270 c0 -5 5 -10 10 -10 6 0 10 5 10 10 0 6 -4 10 -10 10 -5 0
-10 -4 -10 -10z"/>
<path d="M390 261 c0 -25 6 -27 13 -6 4 8 2 17 -3 20 -6 4 -10 -3 -10 -14z"/>
<path d="M1350 270 c-9 -6 -10 -10 -3 -10 6 0 15 5 18 10 8 12 4 12 -15 0z"/>
<path d="M327 263 c-3 -5 6 -9 19 -9 13 -1 21 2 18 7 -6 11 -31 12 -37 2z"/>
<path d="M1385 260 c-3 -6 1 -7 9 -4 18 7 21 14 7 14 -6 0 -13 -4 -16 -10z"/>
<path d="M71 247 c-6 -8 -8 -17 -4 -20 12 -13 22 -7 20 13 -2 24 -1 24 -16 7z"/>
<path d="M1410 225 c0 -8 5 -15 10 -15 6 0 10 7 10 15 0 8 -4 15 -10 15 -5 0
-10 -7 -10 -15z"/>
<path d="M1595 230 c-3 -5 1 -10 10 -10 9 0 13 5 10 10 -3 6 -8 10 -10 10 -2
0 -7 -4 -10 -10z"/>
<path d="M1645 229 c-4 -6 2 -13 14 -16 22 -6 29 -23 10 -23 -6 0 -9 -7 -5
-15 8 -21 -3 -45 -21 -45 -29 0 -8 -34 27 -43 19 -5 41 -13 48 -19 9 -8 12 -6
12 6 0 9 -7 16 -15 16 -8 0 -15 5 -15 11 0 6 -9 8 -22 3 -23 -6 -23 -6 1 15
14 12 31 19 38 17 7 -3 13 -1 13 4 0 6 -9 10 -20 10 -11 0 -20 5 -20 10 0 6 5
10 11 10 5 0 7 5 4 10 -3 6 1 10 9 10 11 0 16 9 16 28 -1 23 -2 24 -11 10 -12
-22 -33 -23 -53 -3 -10 10 -17 12 -21 4z"/>
<path d="M135 210 c-3 -5 -1 -10 4 -10 6 0 11 5 11 10 0 6 -2 10 -4 10 -3 0
-8 -4 -11 -10z"/>
<path d="M285 210 c3 -5 8 -10 11 -10 2 0 4 5 4 10 0 6 -5 10 -11 10 -5 0 -7
-4 -4 -10z"/>
<path d="M323 205 c-3 -9 -3 -18 -1 -21 3 -3 8 4 11 16 6 23 -1 27 -10 5z"/>
<path d="M1370 205 c-11 -13 -11 -18 0 -28 10 -9 11 -9 6 1 -4 7 -2 19 4 27 7
8 10 15 7 15 -2 0 -10 -7 -17 -15z"/>
<path d="M1555 209 c-9 -14 -2 -20 14 -10 8 6 9 11 3 15 -6 3 -14 1 -17 -5z"/>
<path d="M40 195 c-15 -9 -19 -14 -10 -15 13 0 13 -1 0 -10 -8 -5 -12 -12 -9
-15 10 -9 39 6 39 21 0 8 5 14 10 14 6 0 10 5 10 10 0 13 -10 12 -40 -5z"/>
<path d="M105 200 c3 -5 8 -10 11 -10 2 0 4 5 4 10 0 6 -5 10 -11 10 -5 0 -7
-4 -4 -10z"/>
<path d="M172 190 c-27 -26 -29 -34 -2 -18 16 11 22 9 34 -7 8 -11 18 -17 22
-12 4 4 1 13 -8 20 -9 6 -17 18 -19 25 -3 9 -11 7 -27 -8z"/>
<path d="M358 183 c7 -3 16 -2 19 1 4 3 -2 6 -13 5 -11 0 -14 -3 -6 -6z"/>
<path d="M1395 180 c3 -5 10 -10 16 -10 5 0 9 5 9 10 0 6 -7 10 -16 10 -8 0
-12 -4 -9 -10z"/>
<path d="M110 160 c0 -5 5 -10 10 -10 6 0 10 5 10 10 0 6 -4 10 -10 10 -5 0
-10 -4 -10 -10z"/>
<path d="M255 160 c3 -5 11 -10 16 -10 6 0 7 5 4 10 -3 6 -11 10 -16 10 -6 0
-7 -4 -4 -10z"/>
<path d="M1426 161 c-3 -5 1 -14 8 -20 12 -10 13 -8 9 8 -6 23 -9 25 -17 12z"/>
<path d="M1465 160 c3 -5 13 -10 21 -10 8 0 14 5 14 10 0 6 -9 10 -21 10 -11
0 -17 -4 -14 -10z"/>
<path d="M1627 164 c-11 -11 3 -24 18 -18 8 4 12 10 9 15 -6 11 -18 12 -27 3z"/>
<path d="M315 149 c-4 -6 -2 -14 4 -18 7 -4 9 -15 5 -26 -5 -13 -3 -16 7 -13
8 3 13 10 12 16 -2 6 6 16 17 22 11 6 20 16 20 22 0 7 -5 6 -15 -2 -12 -10
-18 -10 -29 -1 -11 9 -16 9 -21 0z"/>
<path d="M1565 138 c1 -9 4 -20 7 -24 4 -3 4 -13 0 -22 -5 -14 -4 -15 10 -2
10 9 13 19 7 25 -14 14 -11 28 6 21 8 -3 15 -2 15 3 0 5 -10 11 -23 13 -18 3
-23 0 -22 -14z"/>
<path d="M79 130 c0 -14 -3 -19 -6 -12 -6 16 -43 15 -43 -2 0 -15 30 -44 30
-30 0 5 5 2 10 -6 8 -13 10 -13 10 0 0 11 3 11 12 2 18 -18 31 -14 25 8 -7 26
15 42 47 34 18 -4 26 -2 26 6 0 9 -12 11 -43 7 -28 -4 -48 -2 -55 5 -9 9 -12
6 -13 -12z"/>
<path d="M1370 136 c0 -9 7 -12 21 -9 16 4 17 8 7 14 -19 13 -28 11 -28 -5z"/>
<path d="M1503 143 c-24 -9 -13 -23 18 -23 27 0 30 2 19 15 -13 16 -17 17 -37
8z"/>
<path d="M4 71 c0 -70 8 -91 21 -51 4 11 10 18 15 15 5 -3 7 -12 3 -20 -3 -8
0 -15 6 -15 6 0 11 6 11 13 0 9 2 9 9 -1 7 -11 10 -10 15 3 9 25 8 53 -3 37
-6 -10 -10 -10 -20 2 -7 8 -19 12 -27 9 -10 -3 -12 0 -8 10 3 8 -1 27 -8 42
-14 25 -14 22 -14 -44z"/>
<path d="M270 122 c0 -10 22 -32 32 -32 15 0 8 28 -8 34 -21 8 -24 8 -24 -2z"/>
<path d="M137 91 c3 -10 11 -18 19 -17 21 3 29 16 10 16 -9 0 -14 5 -11 10 3
6 0 10 -8 10 -10 0 -13 -7 -10 -19z"/>
<path d="M220 79 c0 -12 5 -16 15 -13 8 4 15 12 15 18 0 7 -7 13 -15 13 -8 0
-15 -8 -15 -18z"/>
<path d="M1370 90 c0 -5 5 -10 11 -10 5 0 7 5 4 10 -3 6 -8 10 -11 10 -2 0 -4
-4 -4 -10z"/>
<path d="M1600 80 c0 -5 7 -10 16 -10 8 0 12 5 9 10 -3 6 -10 10 -16 10 -5 0
-9 -4 -9 -10z"/>
<path d="M335 69 c-4 -6 -5 -12 -2 -15 2 -3 7 2 10 11 7 17 1 20 -8 4z"/>
<path d="M1636 45 c-17 -13 -32 -23 -35 -23 -3 0 -14 0 -23 -1 -28 -2 -21 -21
7 -21 14 0 25 5 25 10 0 6 15 10 34 10 34 0 47 13 38 38 -6 17 -12 15 -46 -13z"/>
<path d="M130 50 c0 -5 5 -10 10 -10 6 0 10 5 10 10 0 6 -4 10 -10 10 -5 0
-10 -4 -10 -10z"/>
<path d="M158 35 c-6 -30 -3 -43 8 -33 3 4 4 19 2 35 l-3 28 -7 -30z"/>
<path d="M352 48 c-16 -16 -15 -48 2 -48 12 0 25 28 26 53 0 11 -15 8 -28 -5z"/>
<path d="M848 53 c7 -3 16 -2 19 1 4 3 -2 6 -13 5 -11 0 -14 -3 -6 -6z"/>
<path d="M1462 47 c-9 -11 -10 -17 -2 -22 15 -9 23 -1 18 21 -3 15 -4 16 -16
1z"/>
<path d="M1500 49 c0 -5 5 -7 10 -4 6 3 10 8 10 11 0 2 -4 4 -10 4 -5 0 -10
-5 -10 -11z"/>
<path d="M1560 50 c0 -6 11 -8 28 -4 39 10 40 14 4 14 -18 0 -32 -5 -32 -10z"/>
<path d="M250 40 c0 -5 5 -10 10 -10 6 0 10 5 10 10 0 6 -4 10 -10 10 -5 0
-10 -4 -10 -10z"/>
<path d="M102 28 c-18 -18 -14 -28 8 -28 11 0 20 6 20 14 0 21 -15 27 -28 14z"/>
<path d="M1306 24 c-8 -21 -8 -24 3 -24 5 0 11 9 14 20 6 24 -8 27 -17 4z"/>
<path d="M1387 33 c-7 -11 10 -40 18 -31 4 4 3 14 -3 24 -5 9 -12 12 -15 7z"/>
<path d="M1526 24 c-9 -24 -7 -28 9 -14 17 14 20 30 6 30 -5 0 -12 -7 -15 -16z"/>
<path d="M1710 30 c0 -5 5 -10 10 -10 6 0 10 5 10 10 0 6 -4 10 -10 10 -5 0
-10 -4 -10 -10z"/>
</g>
</svg>
